<svg width="40" height="40" viewBox="0 0 40 40" fill="none" xmlns="http://www.w3.org/2000/svg">
<path d="M20 14.5833C19.3167 14.5833 18.75 14.0167 18.75 13.3333V6.35L17.55 7.55C17.0667 8.03333 16.2667 8.03333 15.7833 7.55C15.3 7.06667 15.3 6.26667 15.7833 5.78333L19.1167 2.45C19.4667 2.1 20.0167 1.98333 20.4833 2.18333C20.95 2.36667 21.25 2.83333 21.25 3.33333V13.3333C21.25 14.0167 20.6833 14.5833 20 14.5833Z" fill="white"/>
<path d="M23.3333 7.91667C23.0167 7.91667 22.7 7.8 22.45 7.55L19.1167 4.21667C18.6333 3.73333 18.6333 2.93333 19.1167 2.45C19.6 1.96667 20.4 1.96667 20.8833 2.45L24.2167 5.78333C24.7 6.26667 24.7 7.06667 24.2167 7.55C23.9667 7.8 23.65 7.91667 23.3333 7.91667Z" fill="white"/>
<path d="M26.6667 37.9167H13.3333C3.75 37.9167 3.75 32.8333 3.75 28.3333V26.6667C3.75 22.95 3.75 18.75 11.6667 18.75C13.65 18.75 14.3833 19.2333 15.4167 20C15.4667 20.05 15.5333 20.0833 15.5833 20.15L17.2833 21.95C18.7167 23.4667 21.3167 23.4667 22.75 21.95L24.45 20.15C24.5 20.1 24.55 20.05 24.6167 20C25.65 19.2167 26.3833 18.75 28.3667 18.75C36.2833 18.75 36.2833 22.95 36.2833 26.6667V28.3333C36.25 34.7 33.0333 37.9167 26.6667 37.9167ZM11.6667 21.25C6.25 21.25 6.25 22.95 6.25 26.6667V28.3333C6.25 32.9 6.25 35.4167 13.3333 35.4167H26.6667C31.6333 35.4167 33.75 33.3 33.75 28.3333V26.6667C33.75 22.95 33.75 21.25 28.3333 21.25C27.1333 21.25 26.8833 21.4 26.1667 21.9333L24.55 23.65C23.35 24.9167 21.7333 25.6167 20 25.6167C18.2667 25.6167 16.65 24.9167 15.45 23.65L13.8333 21.9333C13.1167 21.4 12.8667 21.25 11.6667 21.25Z" fill="white"/>
<path d="M8.33334 21.25C7.65 21.25 7.08334 20.6833 7.08334 20V16.6667C7.08334 13.4333 7.08334 9.41667 13.2167 8.83333C13.8833 8.75 14.5167 9.26667 14.5833 9.96667C14.65 10.65 14.15 11.2667 13.45 11.3333C9.58334 11.6833 9.58334 13.25 9.58334 16.6667V20C9.58334 20.6833 9.01667 21.25 8.33334 21.25Z" fill="white"/>
<path d="M31.6667 21.25C30.9833 21.25 30.4167 20.6833 30.4167 20V16.6667C30.4167 13.25 30.4167 11.6833 26.55 11.3167C25.8667 11.25 25.3667 10.6333 25.4333 9.95C25.5 9.26667 26.1 8.75 26.8 8.83333C32.9333 9.41667 32.9333 13.4333 32.9333 16.6667V20C32.9167 20.6833 32.35 21.25 31.6667 21.25Z" fill="white"/>
</svg>
