<svg width="18" height="9" viewBox="0 0 18 9" fill="none" xmlns="http://www.w3.org/2000/svg">
<path d="M17.3375 7.85003C17.3375 8.04003 17.2675 8.23003 17.1175 8.38003C16.8275 8.67003 16.3475 8.67003 16.0575 8.38003L9.5375 1.86003C9.0575 1.38003 8.2775 1.38003 7.7975 1.86003L1.2775 8.38003C0.9875 8.67003 0.5075 8.67003 0.2175 8.38003C-0.0725 8.09003 -0.0725 7.61003 0.2175 7.32003L6.7375 0.800034C7.2475 0.290034 7.9375 3.43323e-05 8.6675 3.43323e-05C9.3975 3.43323e-05 10.0875 0.280034 10.5975 0.800034L17.1175 7.32003C17.2575 7.47003 17.3375 7.66003 17.3375 7.85003Z" fill="white"/>
</svg>
