<svg width="24" height="24" viewBox="0 0 24 24" fill="none" xmlns="http://www.w3.org/2000/svg">
<path d="M11.4419 22.8837C5.13488 22.8837 0 17.7488 0 11.4419C0 5.13488 5.13488 0 11.4419 0C17.7488 0 22.8837 5.13488 22.8837 11.4419C22.8837 17.7488 17.7488 22.8837 11.4419 22.8837ZM11.4419 1.67442C6.05023 1.67442 1.67442 6.06139 1.67442 11.4419C1.67442 16.8223 6.05023 21.2093 11.4419 21.2093C16.8335 21.2093 21.2093 16.8223 21.2093 11.4419C21.2093 6.06139 16.8335 1.67442 11.4419 1.67442Z" fill="white"/>
<path d="M23.1628 24C22.9507 24 22.7386 23.9219 22.5712 23.7544L20.3386 21.5219C20.0149 21.1982 20.0149 20.6623 20.3386 20.3386C20.6623 20.0149 21.1982 20.0149 21.5219 20.3386L23.7544 22.5712C24.0782 22.8949 24.0782 23.4307 23.7544 23.7544C23.587 23.9219 23.3749 24 23.1628 24Z" fill="white"/>
</svg>
